# xmcd
# Copyright (C) 1995-1998 Ti Kan
#
# Track frame offsets:
#       150
#       16127
#       35033
#       52426
#       73514
#       86030
#       106188
#       121256
#       142286
#       162679
#       176664
#
# Disc length: 2663 seconds
#
# Revision: 0
# Processed by: cddbd v1.5.2PL0 Copyright (c) Steve Scherf et al.
# Submitted via: CD-Import v1.0
#
DISCID=a40a650b
DTITLE=Maximilian Hecker - One Day
DYEAR=2009
DGENRE=
TTITLE0=The Space That You're In
TTITLE1=Misery
TTITLE2=Miss Underwater
TTITLE3=This Poison Called Love (Home In A Town That Has Sunk)
TTITLE4=Summerwaste
TTITLE5=The End Of Longing
TTITLE6=This House Called Love
TTITLE7=Letters From You
TTITLE8=Wind Down
TTITLE9=All These Cradles' Blankets Will Never Veil My Whole Substance
TTITLE10=One Day
EXTD=
EXTT0=
EXTT1=
EXTT2=
EXTT3=
EXTT4=
EXTT5=
EXTT6=
EXTT7=
EXTT8=
EXTT9=
EXTT10=
PLAYORDER=
